<svg xmlns="http://www.w3.org/2000/svg" viewBox="0 0 24 24"><defs><style>.a{fill:none;}.b{fill:#fff;}.c{fill:#420000;opacity:0.12;}</style></defs><g transform="translate(-1141 -603)"><rect class="a" width="24" height="24" transform="translate(1141 603)"/><g transform="translate(1139.2 605.7)"><path class="b" d="M407,212.744l6.485-3.36L407,206Z" transform="translate(-395.679 -199.89)"/><path class="c" d="M407,206l5.686,3.8.8-.414Z" transform="translate(-395.679 -199.89)"/><g transform="translate(1.8 1.3)"><path d="M25.56,4.942a5.2,5.2,0,0,0-.954-2.383,3.434,3.434,0,0,0-2.4-1.017C18.842,1.3,13.8,1.3,13.8,1.3H13.8s-5.038,0-8.4.242a3.434,3.434,0,0,0-2.4,1.017A5.2,5.2,0,0,0,2.04,4.942,36.314,36.314,0,0,0,1.8,8.826v1.821a36.314,36.314,0,0,0,.24,3.884,5.2,5.2,0,0,0,.954,2.383,4.076,4.076,0,0,0,2.646,1.027c1.92.183,8.161.242,8.161.242s5.042-.007,8.4-.251a3.43,3.43,0,0,0,2.4-1.017,5.2,5.2,0,0,0,.954-2.383,36.372,36.372,0,0,0,.24-3.884V8.826A36.314,36.314,0,0,0,25.56,4.942ZM11.321,12.854V6.11l6.485,3.384Z" transform="translate(-1.8 -1.3)"/></g></g></g></svg>