<svg id="Ebene_1" data-name="Ebene 1" xmlns="http://www.w3.org/2000/svg" viewBox="0 0 303.107 140.659"><defs><style>.cls-1{fill:#de111d;fill-rule:evenodd;}.cls-2{fill:none;stroke:#de111d;stroke-miterlimit:2.613;stroke-width:0;}</style></defs><title>spk du logo</title><path class="cls-1" d="M368.981,158.695c0,4.687-2.27,7.844-5.92,7.844-4.687,0-5.871-4.144-5.871-8.781,0-5.674,2.614-8.93,6.364-8.93a7.11784,7.11784,0,0,1,5.427,2.368v7.499m4.785,11.602V145.276h-4.588l-.099,2.121c-1.381-1.479-3.453-2.614-6.857-2.614-5.673,0-10.212,4.687-10.212,12.975,0,8.929,4.144,12.637,9.867,12.637a7.77151,7.77151,0,0,0,7.153-3.659v3.857c0,4.292-2.269,6.364-7.252,6.364a23.97205,23.97205,0,0,1-6.019-.79l-.74,3.651a32.29112,32.29112,0,0,0,7.746.888c3.601,0,6.462-.888,8.337-2.713C372.829,176.266,373.766,173.849,373.766,170.297Zm-24.667-20.482v-4.539a11.12012,11.12012,0,0,0-1.874-.148c-3.207,0-5.674,2.023-7.055,4.884l-.099-4.736h-4.588v24.971h4.786V156.721a7.0018,7.0018,0,0,1,7.104-7.054A10.51757,10.51757,0,0,1,349.099,149.815Zm-21.707,20.432V145.276h-4.785V159.83a6.58464,6.58464,0,0,1-6.315,6.857c-3.207,0-4.736-1.529-4.736-5.229V145.276h-4.785v17.218c0,5.476,2.91,8.247,8.041,8.247a8.87333,8.87333,0,0,0,7.894-4.005l.049,3.511Zm-32.56-12.785c0,5.821-2.023,9.373-6.414,9.373a6.51724,6.51724,0,0,1-5.525-2.911V157.61c0-5.674,2.171-8.782,6.068-8.782C293.302,148.828,294.832,152.43,294.832,157.462Zm5.13-.05c0-8.091-3.551-12.629-9.817-12.629-3.848,0-6.265,1.874-7.252,3.503V133.979h-4.785v36.268h4.588l.098-2.129a8.58162,8.58162,0,0,0,6.611,2.623C296.016,170.741,299.962,165.947,299.962,157.412Zm-28.317,5.772c0-4.637-3.059-6.166-7.548-7.548-3.75-1.184-6.019-1.825-6.019-3.947,0-2.071,1.529-3.107,4.835-3.107a22.18844,22.18844,0,0,1,7.153,1.134V145.77a25.58707,25.58707,0,0,0-7.449-.987c-5.526,0-9.226,2.565-9.226,7.301,0,4.342,3.01,5.772,7.055,7.104,3.404,1.135,6.315,1.727,6.315,4.292,0,2.122-1.48,3.404-5.526,3.404a19.09086,19.09086,0,0,1-7.301-1.48l-1.283,3.602a21.22513,21.22513,0,0,0,8.88,1.735C267.649,170.741,271.645,168.266,271.645,163.184Zm-25.358-25.801a3.13752,3.13752,0,1,0-3.108,2.96A3.07528,3.07528,0,0,0,246.287,137.383Zm-.148,32.864V145.276h-8.041v3.158c.937.049,2.368.246,3.256.394v21.419Zm-13.419,0V145.276h-4.785V159.83a6.58464,6.58464,0,0,1-6.315,6.857c-3.207,0-4.736-1.529-4.736-5.229V145.276h-4.785v17.218c0,5.476,2.91,8.247,8.041,8.247a8.87339,8.87339,0,0,0,7.894-4.005l.049,3.511ZM199.765,153.12c0,8.683-3.798,13.024-10.212,13.024h-5.229V140.047h5.229C195.967,140.047,199.765,144.438,199.765,153.12Zm5.328,0c0-11.396-5.821-17.168-15.589-17.168H179.391v34.287h10.113C199.223,170.239,205.093,164.516,205.093,153.12ZM393.499,99.988h-11.1c.296-4.786,2.22-7.598,5.97-7.598,3.502,0,5.13,2.368,5.13,6.463Zm5.032.542c0-7.498-3.404-11.642-10.064-11.642-7.153,0-11.051,5.328-11.051,13.122,0,7.943,4.342,13.033,11.939,13.033a24.98847,24.98847,0,0,0,7.598-.946l-.938-3.651a24.63637,24.63637,0,0,1-5.969.79c-4.785,0-7.153-2.763-7.548-7.795h15.935C398.482,102.602,398.531,101.566,398.531,100.53Zm-26.443,6.858c0-4.638-3.059-6.167-7.548-7.548-3.749-1.184-6.019-1.826-6.019-3.947,0-2.072,1.53-3.108,4.835-3.108a22.178,22.178,0,0,1,7.153,1.135V89.973a25.5861,25.5861,0,0,0-7.449-.987c-5.525,0-9.225,2.566-9.225,7.302,0,4.341,3.009,5.772,7.054,7.104,3.405,1.134,6.315,1.726,6.315,4.292,0,2.121-1.48,3.404-5.525,3.404a19.0973,19.0973,0,0,1-7.302-1.48l-1.282,3.601a21.20057,21.20057,0,0,0,8.88,1.735C368.092,114.944,372.088,112.469,372.088,107.388Zm-23.137,0c0-4.638-3.059-6.167-7.549-7.548-3.749-1.184-6.018-1.826-6.018-3.947,0-2.072,1.529-3.108,4.834-3.108a22.189,22.189,0,0,1,7.154,1.135V89.973a25.59913,25.59913,0,0,0-7.45-.987c-5.525,0-9.225,2.566-9.225,7.302,0,4.341,3.009,5.772,7.055,7.104,3.404,1.134,6.314,1.726,6.314,4.292,0,2.121-1.48,3.404-5.525,3.404a19.08612,19.08612,0,0,1-7.301-1.48l-1.283,3.601a21.20466,21.20466,0,0,0,8.88,1.735C344.955,114.944,348.951,112.469,348.951,107.388Zm-29.749,1.529a8.19257,8.19257,0,0,1-5.772,2.319c-3.207,0-4.242-1.974-4.242-4.046,0-3.749,2.664-5.032,8.238-5.032h1.776Zm4.736,5.534V97.274c0-5.821-2.96-8.288-9.62-8.288a26.76461,26.76461,0,0,0-7.943,1.135v3.897a20.33739,20.33739,0,0,1,7.006-1.381c4.39,0,5.821,1.48,5.821,4.686v1.333c-.296,0-2.22.049-2.516.049a20.66764,20.66764,0,0,0-7.153,1.135,7.4913,7.4913,0,0,0-5.131,7.548c0,5.476,3.503,7.556,7.696,7.556a10.68509,10.68509,0,0,0,7.203-2.623l.099,2.13Zm-21.855,0c-3.256-4.991-7.498-10.566-11.642-14.167l10.508-10.805h-5.773l-9.324,9.67V78.182h-4.785v36.269h4.785V102.158a84.76032,84.76032,0,0,1,10.213,12.293ZM276.38,94.018V89.479a11.10771,11.10771,0,0,0-1.874-.148c-3.207,0-5.674,2.023-7.055,4.885l-.099-4.737h-4.588v24.972h4.786V100.925a7.002,7.002,0,0,1,7.104-7.055A10.515,10.515,0,0,1,276.38,94.018Zm-26.294,14.899a8.19449,8.19449,0,0,1-5.772,2.319c-3.207,0-4.243-1.974-4.243-4.046,0-3.749,2.664-5.032,8.239-5.032h1.776Zm4.736,5.534V97.274c0-5.821-2.96-8.288-9.62-8.288a26.75953,26.75953,0,0,0-7.943,1.135v3.897a20.33155,20.33155,0,0,1,7.005-1.381c4.391,0,5.822,1.48,5.822,4.686v1.333c-.296,0-2.22.049-2.516.049a20.67784,20.67784,0,0,0-7.154,1.135,7.49048,7.49048,0,0,0-5.13,7.548c0,5.476,3.502,7.556,7.696,7.556a10.68,10.68,0,0,0,7.202-2.623l.099,2.13Zm-29.897-12.737a17.12808,17.12808,0,0,1-.69,4.983,5.69733,5.69733,0,0,1-5.921,4.341,7.303,7.303,0,0,1-5.328-2.318v-6.414c0-5.426,2.171-9.274,6.069-9.274C223.396,93.032,224.925,96.682,224.925,101.714Zm5.131-.098c0-8.19-3.552-12.63-9.719-12.63-4.094,0-6.413,2.122-7.449,4.144l-.099-3.651h-4.588v34.937h4.785V112.913a9.47733,9.47733,0,0,0,6.315,2.031C226.257,114.944,230.056,110.052,230.056,101.616Zm-28.12,3.502c0-6.561-4.539-8.485-9.571-10.311-4.539-1.627-7.745-2.664-7.745-6.018,0-3.306,2.516-5.131,6.808-5.131a26.00817,26.00817,0,0,1,8.534,1.529V80.846a27.48439,27.48439,0,0,0-8.485-1.283c-7.252,0-11.741,3.651-11.741,9.473,0,6.413,5.328,8.189,9.028,9.57,4.094,1.53,7.893,2.664,7.893,6.562,0,3.206-1.727,5.673-7.548,5.673a23.481,23.481,0,0,1-8.93-1.973l-1.381,3.996a26.01206,26.01206,0,0,0,10.903,2.179C197.397,115.043,201.936,111.483,201.936,105.118Zm-87.469-55.55a9.546,9.546,0,1,0,9.571-9.521A9.53812,9.53812,0,0,0,114.467,49.568Zm-9.521,64.883h38.233a9.50314,9.50314,0,0,0,9.522-9.53V83.905H108.744V78.182h43.957V74.383a9.49612,9.49612,0,0,0-9.522-9.521H104.946a9.49611,9.49611,0,0,0-9.522,9.521V95.4h43.858v5.722H95.424v3.799A9.50313,9.50313,0,0,0,104.946,114.451Z" transform="translate(-95.424 -40.047)"/><path class="cls-2" d="M368.981,158.695c0,4.687-2.27,7.844-5.92,7.844-4.687,0-5.871-4.144-5.871-8.781,0-5.674,2.614-8.93,6.364-8.93a7.11784,7.11784,0,0,1,5.427,2.368Zm4.785,11.602V145.276h-4.588l-.099,2.121c-1.381-1.479-3.453-2.614-6.857-2.614-5.673,0-10.212,4.687-10.212,12.975,0,8.929,4.144,12.637,9.867,12.637a7.77151,7.77151,0,0,0,7.153-3.659v3.857c0,4.292-2.269,6.364-7.252,6.364a23.97205,23.97205,0,0,1-6.019-.79l-.74,3.651a32.29112,32.29112,0,0,0,7.746.888c3.601,0,6.462-.888,8.337-2.713C372.829,176.266,373.766,173.849,373.766,170.297Zm-24.667-20.482v-4.539a11.12012,11.12012,0,0,0-1.874-.148c-3.207,0-5.674,2.023-7.055,4.884l-.099-4.736h-4.588v24.971h4.786V156.721a7.0018,7.0018,0,0,1,7.104-7.054A10.51757,10.51757,0,0,1,349.099,149.815Zm-21.707,20.432V145.276h-4.785V159.83a6.58464,6.58464,0,0,1-6.315,6.857c-3.207,0-4.736-1.529-4.736-5.229V145.276h-4.785v17.218c0,5.476,2.91,8.247,8.041,8.247a8.87333,8.87333,0,0,0,7.894-4.005l.049,3.511Zm-32.56-12.785c0,5.821-2.023,9.373-6.414,9.373a6.51724,6.51724,0,0,1-5.525-2.911V157.61c0-5.674,2.171-8.782,6.068-8.782C293.302,148.828,294.832,152.43,294.832,157.462Zm5.13-.05c0-8.091-3.551-12.629-9.817-12.629-3.848,0-6.265,1.874-7.252,3.503V133.979h-4.785v36.268h4.588l.098-2.129a8.58162,8.58162,0,0,0,6.611,2.623C296.016,170.741,299.962,165.947,299.962,157.412Zm-28.317,5.772c0-4.637-3.059-6.166-7.548-7.548-3.75-1.184-6.019-1.825-6.019-3.947,0-2.071,1.529-3.107,4.835-3.107a22.18844,22.18844,0,0,1,7.153,1.134V145.77a25.58707,25.58707,0,0,0-7.449-.987c-5.526,0-9.226,2.565-9.226,7.301,0,4.342,3.01,5.772,7.055,7.104,3.404,1.135,6.315,1.727,6.315,4.292,0,2.122-1.48,3.404-5.526,3.404a19.09086,19.09086,0,0,1-7.301-1.48l-1.283,3.602a21.22513,21.22513,0,0,0,8.88,1.735C267.649,170.741,271.645,168.266,271.645,163.184Zm-25.358-25.801a3.13752,3.13752,0,1,0-3.108,2.96A3.07528,3.07528,0,0,0,246.287,137.383Zm-.148,32.864V145.276h-8.041v3.158c.937.049,2.368.246,3.256.394v21.419Zm-13.419,0V145.276h-4.785V159.83a6.58464,6.58464,0,0,1-6.315,6.857c-3.207,0-4.736-1.529-4.736-5.229V145.276h-4.785v17.218c0,5.476,2.91,8.247,8.041,8.247a8.87339,8.87339,0,0,0,7.894-4.005l.049,3.511ZM199.765,153.12c0,8.683-3.798,13.024-10.212,13.024h-5.229V140.047h5.229C195.967,140.047,199.765,144.438,199.765,153.12Zm5.328,0c0-11.396-5.821-17.168-15.589-17.168H179.391v34.287h10.113C199.223,170.239,205.093,164.516,205.093,153.12ZM393.499,99.988h-11.1c.296-4.786,2.22-7.598,5.97-7.598,3.502,0,5.13,2.368,5.13,6.463Zm5.032.542c0-7.498-3.404-11.642-10.064-11.642-7.153,0-11.051,5.328-11.051,13.122,0,7.943,4.342,13.033,11.939,13.033a24.98847,24.98847,0,0,0,7.598-.946l-.938-3.651a24.63637,24.63637,0,0,1-5.969.79c-4.785,0-7.153-2.763-7.548-7.795h15.935C398.482,102.602,398.531,101.566,398.531,100.53Zm-26.443,6.858c0-4.638-3.059-6.167-7.548-7.548-3.749-1.184-6.019-1.826-6.019-3.947,0-2.072,1.53-3.108,4.835-3.108a22.178,22.178,0,0,1,7.153,1.135V89.973a25.5861,25.5861,0,0,0-7.449-.987c-5.525,0-9.225,2.566-9.225,7.302,0,4.341,3.009,5.772,7.054,7.104,3.405,1.134,6.315,1.726,6.315,4.292,0,2.121-1.48,3.404-5.525,3.404a19.0973,19.0973,0,0,1-7.302-1.48l-1.282,3.601a21.20057,21.20057,0,0,0,8.88,1.735C368.092,114.944,372.088,112.469,372.088,107.388Zm-23.137,0c0-4.638-3.059-6.167-7.549-7.548-3.749-1.184-6.018-1.826-6.018-3.947,0-2.072,1.529-3.108,4.834-3.108a22.189,22.189,0,0,1,7.154,1.135V89.973a25.59913,25.59913,0,0,0-7.45-.987c-5.525,0-9.225,2.566-9.225,7.302,0,4.341,3.009,5.772,7.055,7.104,3.404,1.134,6.314,1.726,6.314,4.292,0,2.121-1.48,3.404-5.525,3.404a19.08612,19.08612,0,0,1-7.301-1.48l-1.283,3.601a21.20466,21.20466,0,0,0,8.88,1.735C344.955,114.944,348.951,112.469,348.951,107.388Zm-29.749,1.529a8.19257,8.19257,0,0,1-5.772,2.319c-3.207,0-4.242-1.974-4.242-4.046,0-3.749,2.664-5.032,8.238-5.032h1.776Zm4.736,5.534V97.274c0-5.821-2.96-8.288-9.62-8.288a26.76461,26.76461,0,0,0-7.943,1.135v3.897a20.33739,20.33739,0,0,1,7.006-1.381c4.39,0,5.821,1.48,5.821,4.686v1.333c-.296,0-2.22.049-2.516.049a20.66764,20.66764,0,0,0-7.153,1.135,7.4913,7.4913,0,0,0-5.131,7.548c0,5.476,3.503,7.556,7.696,7.556a10.68509,10.68509,0,0,0,7.203-2.623l.099,2.13Zm-21.855,0c-3.256-4.991-7.498-10.566-11.642-14.167l10.508-10.805h-5.773l-9.324,9.67V78.182h-4.785v36.269h4.785V102.158a84.76032,84.76032,0,0,1,10.213,12.293ZM276.38,94.018V89.479a11.10771,11.10771,0,0,0-1.874-.148c-3.207,0-5.674,2.023-7.055,4.885l-.099-4.737h-4.588v24.972h4.786V100.925a7.002,7.002,0,0,1,7.104-7.055A10.515,10.515,0,0,1,276.38,94.018Zm-26.294,14.899a8.19449,8.19449,0,0,1-5.772,2.319c-3.207,0-4.243-1.974-4.243-4.046,0-3.749,2.664-5.032,8.239-5.032h1.776Zm4.736,5.534V97.274c0-5.821-2.96-8.288-9.62-8.288a26.75953,26.75953,0,0,0-7.943,1.135v3.897a20.33155,20.33155,0,0,1,7.005-1.381c4.391,0,5.822,1.48,5.822,4.686v1.333c-.296,0-2.22.049-2.516.049a20.67784,20.67784,0,0,0-7.154,1.135,7.49048,7.49048,0,0,0-5.13,7.548c0,5.476,3.502,7.556,7.696,7.556a10.68,10.68,0,0,0,7.202-2.623l.099,2.13Zm-29.897-12.737a17.12808,17.12808,0,0,1-.69,4.983,5.69733,5.69733,0,0,1-5.921,4.341,7.303,7.303,0,0,1-5.328-2.318v-6.414c0-5.426,2.171-9.274,6.069-9.274C223.396,93.032,224.925,96.682,224.925,101.714Zm5.131-.098c0-8.19-3.552-12.63-9.719-12.63-4.094,0-6.413,2.122-7.449,4.144l-.099-3.651h-4.588v34.937h4.785V112.913a9.47733,9.47733,0,0,0,6.315,2.031C226.257,114.944,230.056,110.052,230.056,101.616Zm-28.12,3.502c0-6.561-4.539-8.485-9.571-10.311-4.539-1.627-7.745-2.664-7.745-6.018,0-3.306,2.516-5.131,6.808-5.131a26.00817,26.00817,0,0,1,8.534,1.529V80.846a27.48439,27.48439,0,0,0-8.485-1.283c-7.252,0-11.741,3.651-11.741,9.473,0,6.413,5.328,8.189,9.028,9.57,4.094,1.53,7.893,2.664,7.893,6.562,0,3.206-1.727,5.673-7.548,5.673a23.481,23.481,0,0,1-8.93-1.973l-1.381,3.996a26.01206,26.01206,0,0,0,10.903,2.179C197.397,115.043,201.936,111.483,201.936,105.118Zm-87.469-55.55a9.546,9.546,0,1,0,9.571-9.521A9.53812,9.53812,0,0,0,114.467,49.568Zm-9.521,64.883h38.233a9.50314,9.50314,0,0,0,9.522-9.53V83.905H108.744V78.182h43.957V74.383a9.49612,9.49612,0,0,0-9.522-9.521H104.946a9.49611,9.49611,0,0,0-9.522,9.521V95.4h43.858v5.722H95.424v3.799A9.50313,9.50313,0,0,0,104.946,114.451Z" transform="translate(-95.424 -40.047)"/></svg>