<svg id="Ebene_1" data-name="Ebene 1" xmlns="http://www.w3.org/2000/svg" viewBox="0 0 928.57227 149.03381"><defs><style>.cls-1{fill:#428ecc;}</style></defs><title>FHG News Logo</title><path class="cls-1" d="M122.98233,513.24966h-57.382v59.27481H35.71387V427.47553h94.44121v24.208H65.60033v37.45769h57.382Z" transform="translate(-35.71387 -425.4831)"/><path class="cls-1" d="M265.54073,572.52447H235.65427V510.36064H177.37568v62.16383H147.48922V427.47553h29.88646v58.7767h58.27859v-58.7767h29.88646Z" transform="translate(-35.71387 -425.4831)"/><path class="cls-1" d="M406.40557,554.19411q-8.06934,9.66445-22.81333,14.993a95.57823,95.57823,0,0,1-32.67586,5.32975q-18.82846,0-33.02453-8.21877a54.8046,54.8046,0,0,1-21.91674-23.85936q-7.72182-15.63827-7.91991-36.76034V495.8159q0-21.71634,7.32218-37.60713,7.32219-15.88848,21.11976-24.30765,13.79643-8.41686,32.32719-8.418,25.79965,0,40.34672,12.30326,14.54358,12.30557,17.23452,35.81393H377.31609q-1.99474-12.45153-8.81651-18.23073-6.82522-5.77573-18.77866-5.778-15.24208,0-23.21181,11.45647-7.972,11.45765-8.06935,34.07057v9.2648q0,22.81449,8.66708,34.469,8.66708,11.65572,25.40349,11.65571,16.83372,0,24.00879-7.17275v-25.005H349.32244V496.314h57.08313Z" transform="translate(-35.71387 -425.4831)"/><path d="M594.491,572.52447H582.23757L498.85435,448.39605V572.52447H486.50128V427.47553h12.35307l83.48284,124.228v-124.228H594.491Z" transform="translate(-35.71387 -425.4831)"/><path d="M670.303,574.5169a46.77619,46.77619,0,0,1-24.85557-6.77426,46.14617,46.14617,0,0,1-17.28433-18.87828,58.83549,58.83549,0,0,1-6.17654-27.14687v-4.28372a63.41289,63.41289,0,0,1,6.0271-27.99365,47.95562,47.95562,0,0,1,16.78623-19.57563,41.42274,41.42274,0,0,1,23.31144-7.12294q19.62428,0,31.13173,13.39909,11.50627,13.40026,11.50628,36.61092v6.67464H633.84152v2.29129q0,18.33153,10.51007,30.534a33.43043,33.43043,0,0,0,26.44952,12.20364,38.82086,38.82086,0,0,0,16.88585-3.48675,37.42716,37.42716,0,0,0,13.29947-11.15762l7.47162,5.67843Q695.308,574.51923,670.303,574.5169Zm-2.19167-101.614a29.79974,29.79974,0,0,0-22.6639,9.86254Q636.23128,492.628,634.24,509.2648h64.65437v-1.29508q-.50041-15.541-8.86631-25.30387Q681.65986,472.90411,668.11133,472.90294Z" transform="translate(-35.71387 -425.4831)"/><path d="M759.76314,547.71871l1.79318,9.2648,2.39092-9.76291,25.9016-82.48662h10.16139L825.613,546.52325l2.7894,11.35686,2.29129-10.46026,22.116-82.68587h12.35307L833.78193,572.52447h-10.1614L795.92575,487.0492l-1.29508-5.87767-1.29508,5.97729-27.19668,85.37565H755.97752L724.69636,464.734h12.25345Z" transform="translate(-35.71387 -425.4831)"/><path d="M952.33155,545.12855a16.99063,16.99063,0,0,0-7.12294-14.24588q-7.1241-5.37955-21.46844-8.418-14.34551-3.03729-22.26541-6.9735-7.91991-3.9339-11.75534-9.61348A23.97781,23.97781,0,0,1,885.884,492.1299q0-12.7504,10.6595-21.07,10.65835-8.31609,27.2963-8.3184,18.02919,0,28.94006,8.91613A28.61689,28.61689,0,0,1,963.6884,494.9193H951.73382q0-9.46289-7.91991-15.7402-7.91991-6.27615-19.97412-6.27616-11.75649,0-18.87828,5.23013-7.1241,5.23014-7.12294,13.59834,0,8.06935,5.92748,12.5025,5.92516,4.43433,21.61788,8.11916,15.69039,3.68715,23.51068,7.8701,7.81913,4.1841,11.6059,10.06177a27.668,27.668,0,0,1-7.22256,36.063q-11.00933,8.17012-28.74081,8.169-18.82847,0-30.534-9.11537-11.70785-9.11536-11.70553-23.06238H894.2522a20.72122,20.72122,0,0,0,8.8165,16.28812q8.118,5.82786,21.46844,5.82786,12.45153,0,20.12355-5.47919Q952.33039,553.49908,952.33155,545.12855Z" transform="translate(-35.71387 -425.4831)"/></svg>