<?xml version="1.0" encoding="utf-8"?>
<!-- Generator: Adobe Illustrator 21.0.2, SVG Export Plug-In . SVG Version: 6.00 Build 0)  -->
<svg version="1.1" id="FHGNews" xmlns="http://www.w3.org/2000/svg" xmlns:xlink="http://www.w3.org/1999/xlink" x="0px" y="0px"
	 viewBox="0 0 1136.7701416 414.8294983" style="enable-background:new 0 0 1136.7701416 414.8294983;" xml:space="preserve">
	<style type="text/css">
		@import url('https://fonts.googleapis.com/css?family=Patrick+Hand');
		.st0{fill:#2C3E50;}
		.st1{fill:none;}
		.st2{font-family:'Patrick Hand';}
		.st3{font-size:200px;}
		.st2::selection {
				background: transparent;
				color: inherit;
		}
		.st2::-moz-selection {
				background: transparent;
				color: inherit;
		}
		.st2 {
				-ms-user-select: none;
				-webkit-user-select: none;
				-moz-user-select: none;
				user-select: none;
		}
	</style>

	<g>
		<path class="st0" d="M342.5249023,32.1150131v88.1351852H18.0404816V76.1826019
			c0-24.3400078,19.727581-44.0675888,44.0675926-44.0675888H342.5249023z"/>
		<path class="st0" d="M777.3251343,32.1150131v88.1351852H467.3683777V76.1826019
			c0-24.3400078,19.7275696-44.0675888,44.0675659-44.0675888H777.3251343z"/>
		<rect x="18.0404816" y="177.5380707" class="st0" width="194.5584412" height="88.1351852"/>
		<rect x="254.375" y="177.5380707" class="st0" width="301.1432495" height="88.1351852"/>
		<rect x="601.8626709" y="177.5380707" class="st0" width="175.4624786" height="88.1351852"/>
		<rect x="18.0404816" y="322.9611206" class="st0" width="88.1498871" height="88.1351852"/>
		<rect x="254.375" y="322.9611206" class="st0" width="88.1498871" height="88.1351852"/>
		<path class="st0" d="M777.3251343,322.9611206v44.0675964c0,24.3399963-19.7276001,44.0675964-44.0675659,44.0675964H511.4359436
			c-24.3399963,0-44.0675659-19.7276001-44.0675659-44.0675964v-44.0675964H777.3251343z"/>
		<path class="st0" d="M106.1903687,32.1150131v378.9812927H18.0404816V76.1826019
			c0-24.3400078,19.727581-44.0675888,44.0675926-44.0675888H106.1903687z"/>
		<rect x="254.375" y="32.1150131" class="st0" width="88.1498871" height="378.9812927"/>
		<path class="st0" d="M555.5182495,32.1150131v378.9812927h-44.0823059c-24.3399963,0-44.0675659-19.7276001-44.0675659-44.0675964
			V76.1826019c0-24.3400078,19.7275696-44.0675888,44.0675659-44.0675888H555.5182495z"/>
		<path class="st0" d="M777.3251343,178.8454285V367.028717c0,24.3399963-19.7276001,44.0675964-44.0675659,44.0675964h-44.0823364
			v-232.250885H777.3251343z"/>
	</g>
	<rect x="777.3251343" y="262" class="st1" width="359.4450073" height="152.3652039"/>
	<text transform="matrix(1 0 0 1 777.3251343 404.9990234)" class="st2 st3">News</text>
</svg>
