<svg id="Ebene_1" data-name="Ebene 1" xmlns="http://www.w3.org/2000/svg" viewBox="0 0 746.89934 119.12195"><defs><style>.cls-1{fill:#428ecc;}.cls-2{fill:#999;}</style></defs><title>fhgnews</title><path class="cls-1" d="M196.30345,510.59061h-45.865v47.37782H126.55033V442.03157h75.48641v19.3496H150.43848v29.93954h45.865Z" transform="translate(-126.55033 -440.43902)"/><path class="cls-1" d="M310.2493,557.96843H286.36115V508.28082H239.7796v49.68761H215.89146V442.03157H239.7796v46.97934h46.58155V442.03157H310.2493Z" transform="translate(-126.55033 -440.43902)"/><path class="cls-1" d="M422.84169,543.31677q-6.44919,7.72566-18.23455,11.98392a76.38072,76.38072,0,0,1-26.11757,4.26029q-15.04913,0-26.3965-6.56874a43.81078,43.81078,0,0,1-17.5173-19.07134q-6.17263-12.49924-6.33033-29.38168v-7.883q0-17.35791,5.85216-30.05976a43.29638,43.29638,0,0,1,16.88109-19.42862q11.02725-6.72778,25.83864-6.7288,20.622,0,32.24934,9.83352,11.625,9.83689,13.775,28.6266H399.5911q-1.59456-9.95238-7.04757-14.572-5.45436-4.61757-15.00962-4.61824-12.18214,0-18.55266,9.15678-6.37118,9.15815-6.44986,27.23263v7.40485q0,18.23523,6.92736,27.5514t20.30526,9.31618q13.45557,0,19.18954-5.73262V514.651H377.2158V497.05332h45.62589Z" transform="translate(-126.55033 -440.43902)"/><path class="cls-2" d="M574.77017,557.96843H559.40193l-58.36624-89.3418v89.3418H485.66745V442.03157h15.36824l58.52562,89.74027V442.03157h15.20886Z" transform="translate(-126.55033 -440.43902)"/><path class="cls-2" d="M635.36583,559.561q-17.519,0-28.50639-11.50576Q595.87069,536.5488,595.871,517.27957V514.5713a51.71168,51.71168,0,0,1,4.89649-22.89264,38.202,38.202,0,0,1,13.696-15.766,34.44321,34.44321,0,0,1,19.07067-5.69345q16.7997,0,26.11757,11.06811,9.31617,11.06878,9.31618,31.69147v6.13244H610.60171q.3171,12.74036,7.44538,20.58285a23.40065,23.40065,0,0,0,18.115,7.84384,25.65928,25.65928,0,0,0,13.21784-3.18508,33.21077,33.21077,0,0,0,9.47556-8.44089l8.99807,7.00638Q657.02387,559.563,635.36583,559.561Zm-1.83163-77.23767a19.64556,19.64556,0,0,0-14.96977,6.489q-6.05206,6.49174-7.48522,18.1947h43.15805v-1.11437q-.63824-11.22682-6.05139-17.39911Q642.77,482.324,633.5342,482.32331Z" transform="translate(-126.55033 -440.43902)"/><path class="cls-2" d="M762.29111,537.66385l16.561-65.85213h14.73136l-25.08087,86.15671H756.55782l-20.94215-65.29426-20.38428,65.29426H703.28732L678.2848,471.81172h14.651l16.96078,64.49867,20.06618-64.49867h11.86438Z" transform="translate(-126.55033 -440.43902)"/><path class="cls-2" d="M858.71831,535.115a10.84461,10.84461,0,0,0-4.498-9.27565q-4.50006-3.30464-15.68635-5.69345-11.18832-2.38881-17.75706-5.734a25.24692,25.24692,0,0,1-9.71465-7.96272,19.03323,19.03323,0,0,1-3.14591-10.98841q0-10.58859,8.95822-17.9151,8.95755-7.32651,22.89264-7.32651,14.651,0,23.76928,7.5656a24.03113,24.03113,0,0,1,9.11761,19.34825H857.843a13.30324,13.30324,0,0,0-5.13558-10.43055,19.25052,19.25052,0,0,0-12.94026-4.37916q-8.04377,0-12.581,3.50252a11.03223,11.03223,0,0,0-4.53854,9.15813,8.935,8.935,0,0,0,4.21977,8.04241q4.22043,2.70692,15.2487,5.17475a79.52945,79.52945,0,0,1,17.87727,5.89336,26.10226,26.10226,0,0,1,10.1523,8.241,20.27346,20.27346,0,0,1,3.30395,11.74484,22.05208,22.05208,0,0,1-9.23648,18.51348q-9.23918,6.96788-23.96784,6.96721a43.39421,43.39421,0,0,1-18.31357-3.66326,29.77,29.77,0,0,1-12.46209-10.232,24.65294,24.65294,0,0,1-4.49937-14.21267h14.73136a15.24683,15.24683,0,0,0,5.93252,11.74484q5.53338,4.34,14.61115,4.34,8.35983,0,13.41707-3.385A10.39857,10.39857,0,0,0,858.71831,535.115Z" transform="translate(-126.55033 -440.43902)"/></svg>