<?xml version="1.0" encoding="utf-8"?>
<!-- Generator: Adobe Illustrator 21.0.2, SVG Export Plug-In . SVG Version: 6.00 Build 0)  -->
<svg version="1.1" id="Logo" xmlns="http://www.w3.org/2000/svg" xmlns:xlink="http://www.w3.org/1999/xlink" x="0px" y="0px"
	 viewBox="0 0 1280 1280" style="enable-background:new 0 0 1280 1280;" xml:space="preserve">
	<style type="text/css">
		.st0{fill:#8E44AD;}
		.st1{fill:#3498DB;}
		.st2{fill:#2980B9;}
		.st3{fill:#34495E;}
		.st4{fill:#2C3E50;}
		.st5{fill:#2ECC71;}
		.st6{fill:#1D994F;}
		.st7{fill:#27AE60;}
		.st8{fill:none;}
		.st9{fill:#9B59B6;}
	</style>
	<g>
		<polygon class="st0" points="658.9,371.2 353.3,194.8 658.9,18.3 	"/>
	</g>
	<g>
		<polygon class="st1" points="353.3,547.7 353.3,194.8 658.9,371.2 	"/>
	</g>
	<g>
		<polygon class="st2" points="658.9,724.1 353.3,547.7 658.9,371.2 	"/>
	</g>
	<g>
		<polygon class="st3" points="658.9,724.1 658.9,371.2 964.6,547.7 	"/>
	</g>
	<g>
		<polygon class="st4" points="964.6,194.7 964.6,547.7 658.9,371.2 	"/>
	</g>
	<g>
		<polygon class="st5" points="658.9,724.1 353.3,900.6 353.3,547.7 	"/>
	</g>
	<g>
		<polygon class="st6" points="658.9,1077 353.3,1253.5 353.3,900.6 	"/>
	</g>
	<g>
		<polygon class="st7" points="353.3,900.6 658.9,724.1 658.9,1077 	"/>
	</g>
	<line class="st8" x1="1045.4" y1="1136" x2="1351" y2="959.5"/>
	<polygon class="st9" points="658.9,371.2 658.9,18.3 964.6,194.8 "/>
</svg>
