<?xml version="1.0" encoding="utf-8"?>
<!-- Generator: Adobe Illustrator 21.0.2, SVG Export Plug-In . SVG Version: 6.00 Build 0)  -->
<svg version="1.1" id="Capa_1" xmlns="http://www.w3.org/2000/svg" xmlns:xlink="http://www.w3.org/1999/xlink" x="0px" y="0px"
	 viewBox="0 0 53 53" style="enable-background:new 0 0 53 53;" xml:space="preserve">
<style type="text/css">
	.st0{fill:#2C3E50;}
	.st1{fill:#E7ECED;}
</style>
<rect x="-0.0015625" y="0.0010417" class="st0" width="53.0031242" height="53.0048409"/>
<path class="st1" d="M45.6300049,53H7.0100098c0.4252844-2.2470589,1.1546965-5.2470589,2.4299927-6.2299805
	c0.3900146-0.3400269,0.7999878-0.6500244,1.2700195-0.9100342l7.8999634-4.3099976
	c1.0400391-0.5599976,1.6900024-1.6499634,1.6900024-2.8300171v-3.2399902c0,0-2.3200073-2.7799683-3.2099609-6.6300049
	c-0.7300415-0.4799805-1.2300415-1.2999878-1.2300415-2.2399902v-3.539978c0-0.7800293,0.3500366-1.4799805,0.8900146-1.9700317
	v-5.1199951C16.75,15.9799805,15.7000122,8,26.5,8s9.75,7.9799805,9.75,7.9799805v5.1199951
	c0.539978,0.4900513,0.8900146,1.1900024,0.8900146,1.9700317v3.539978c0,1.2000122-0.7999878,2.2000122-1.8900146,2.5400391
	c-0.5999756,1.8800049-1.4799805,3.6699829-2.6300049,5.2999878c-0.289978,0.4099731-0.5599976,0.7600098-0.7999878,1.0299683
	v3.3200073c0,1.2200317,0.6900024,2.3400269,1.7799683,2.8900146l8.4700317,4.2299805
	c0.062706,0.0242195,0.8543243,0.3957787,1.3900146,0.9400024C44.2117653,47.5294113,45.3764725,50.2352943,45.6300049,53z"/>
</svg>
